<?xml version="1.0" standalone="no"?>
<!DOCTYPE svg PUBLIC "-//W3C//DTD SVG 20010904//EN"
 "http://www.w3.org/TR/2001/REC-SVG-20010904/DTD/svg10.dtd">
<svg version="1.0" xmlns="http://www.w3.org/2000/svg"
 width="512.000000pt" height="512.000000pt" viewBox="0 0 512.000000 512.000000"
 preserveAspectRatio="xMidYMid meet">
<metadata>
Created by potrace 1.14, written by Peter Selinger 2001-2017
</metadata>
<g transform="translate(0.000000,512.000000) scale(0.100000,-0.100000)"
fill="#000000" stroke="none">
<path d="M1453 4290 c-167 -26 -356 -74 -428 -110 -115 -56 -264 -201 -361
-351 -181 -279 -383 -800 -500 -1289 -81 -337 -156 -868 -157 -1105 -1 -195
46 -310 182 -445 133 -133 278 -190 481 -190 104 0 124 3 212 34 54 18 123 48
154 67 124 74 286 252 520 569 206 281 287 381 331 412 298 204 1071 200 1354
-8 46 -34 105 -107 349 -439 274 -372 415 -509 599 -584 115 -48 150 -53 288
-49 147 5 213 23 328 90 85 50 190 154 232 228 60 108 76 172 76 305 -1 188
-59 648 -119 945 -103 510 -345 1166 -536 1455 -105 158 -250 300 -363 355
-192 94 -651 155 -873 116 -104 -18 -173 -49 -234 -104 -52 -47 -81 -93 -122
-195 -29 -72 -36 -83 -62 -88 -16 -4 -126 -7 -244 -7 -118 0 -228 3 -243 7
-23 5 -33 19 -61 83 -64 146 -102 196 -198 252 -73 43 -149 57 -323 62 -124 3
-187 -1 -282 -16z m402 -285 c32 -9 65 -21 74 -28 8 -7 38 -62 67 -124 61
-129 104 -181 177 -214 51 -24 56 -24 387 -24 l335 0 56 26 c71 33 99 69 174
216 80 156 83 158 290 157 120 -1 178 -6 287 -28 302 -59 356 -93 503 -319
145 -223 348 -731 445 -1112 75 -296 157 -817 167 -1067 6 -134 5 -138 -21
-191 -57 -117 -182 -197 -317 -205 -90 -5 -153 12 -244 66 -96 58 -187 159
-394 437 -319 427 -333 445 -391 491 -127 102 -338 185 -554 219 -158 25 -632
17 -757 -13 -192 -46 -341 -110 -456 -196 -57 -43 -98 -92 -251 -296 -380
-510 -421 -558 -532 -631 -147 -97 -310 -105 -440 -24 -51 32 -119 110 -142
163 -19 42 -20 59 -15 187 12 273 91 771 173 1085 101 387 305 889 451 1109
106 159 193 227 342 266 222 57 474 79 586 50z"/>
<path d="M3485 3561 c-80 -37 -124 -100 -132 -193 -8 -80 15 -135 78 -192 86
-77 187 -83 292 -16 53 34 89 100 95 177 4 45 0 63 -26 116 -33 65 -72 100
-133 117 -53 15 -130 11 -174 -9z m130 -125 c41 -17 55 -42 55 -95 0 -50 -34
-81 -90 -81 -30 0 -44 6 -64 31 -42 50 -32 103 27 139 38 24 30 23 72 6z"/>
<path d="M1269 3495 c-31 -17 -39 -62 -39 -217 l0 -96 -145 -4 c-92 -2 -148
-7 -156 -15 -19 -19 -28 -91 -29 -235 0 -131 1 -138 24 -165 24 -27 27 -28
158 -33 73 -3 139 -9 146 -13 8 -6 12 -46 12 -142 0 -106 3 -137 15 -149 22
-22 86 -28 243 -24 185 4 177 -3 185 175 4 75 9 139 12 141 3 3 66 8 141 11
182 8 174 -3 174 226 0 230 9 219 -178 223 l-139 4 -6 141 c-9 192 3 181 -220
184 -135 2 -178 0 -198 -12z m271 -270 c0 -131 1 -137 25 -160 23 -24 29 -25
160 -25 l135 0 0 -85 0 -85 -137 0 c-187 0 -183 4 -183 -182 l0 -138 -85 0
-85 0 0 140 c0 186 6 180 -182 180 l-138 0 0 84 0 85 146 3 c131 3 147 5 160
22 10 15 14 55 14 158 l0 138 85 0 85 0 0 -135z"/>
<path d="M3108 3181 c-97 -20 -168 -113 -168 -220 0 -70 14 -111 55 -159 80
-95 236 -106 327 -24 155 140 80 389 -122 406 -30 3 -72 1 -92 -3z m130 -166
c64 -75 -20 -186 -107 -141 -60 32 -70 99 -21 148 27 26 36 30 68 25 22 -4 46
-17 60 -32z"/>
<path d="M3897 3176 c-114 -42 -177 -170 -143 -289 50 -173 286 -222 401 -85
40 47 55 89 55 153 0 92 -45 167 -123 207 -52 26 -140 33 -190 14z m116 -137
c74 -38 77 -128 6 -165 -61 -31 -133 14 -133 83 0 27 7 42 32 64 35 31 60 36
95 18z"/>
<path d="M3506 2785 c-126 -48 -186 -178 -141 -306 53 -150 249 -198 374 -93
123 103 96 310 -50 385 -52 26 -134 32 -183 14z m139 -160 c35 -34 35 -96 -1
-132 -22 -22 -32 -25 -67 -20 -83 11 -114 92 -58 148 38 38 91 40 126 4z"/>
</g>
</svg>
